<?xml version="1.0" standalone="no"?>
<!DOCTYPE svg PUBLIC "-//W3C//DTD SVG 20010904//EN"
 "http://www.w3.org/TR/2001/REC-SVG-20010904/DTD/svg10.dtd">
<svg version="1.0" xmlns="http://www.w3.org/2000/svg"
 width="640.000000pt" height="640.000000pt" viewBox="0 0 640.000000 640.000000"
 preserveAspectRatio="xMidYMid meet">
<metadata>
Created by potrace 1.11, written by Peter Selinger 2001-2013
</metadata>
<g transform="translate(0.000000,640.000000) scale(0.100000,-0.100000)"
fill="#000000" stroke="none">
<path d="M436 5383 c-2 -2 -16 -6 -32 -9 -16 -3 -42 -14 -59 -24 -42 -26 -302
-290 -322 -326 -22 -42 -25 -144 -5 -196 16 -44 30 -58 1247 -1281 l346 -347
-418 -420 c-1025 -1028 -1151 -1157 -1168 -1190 -10 -19 -20 -60 -22 -91 -8
-93 20 -140 181 -299 75 -74 156 -145 180 -158 76 -40 186 -28 249 27 16 14
472 468 1012 1008 715 714 988 993 1003 1025 26 55 25 146 -3 203 -23 47
-1998 2026 -2047 2051 -29 15 -134 35 -142 27z"/>
<path d="M3055 1749 c-95 -30 -164 -109 -171 -196 -2 -21 -3 -40 -4 -43 -1 -3
-1 -36 0 -75 1 -88 1 -76 0 -170 -1 -89 4 -123 24 -169 28 -63 111 -126 171
-129 19 -1 35 -4 35 -7 0 -5 108 -4 268 3 34 1 62 0 62 -3 0 -4 27 -4 125 0
11 1 38 1 60 1 22 0 47 0 55 0 8 0 65 0 125 0 61 0 119 0 130 0 11 0 95 -1
187 -3 93 -2 168 0 168 3 0 3 23 3 50 -1 28 -4 50 -3 50 0 0 4 19 4 43 0 23
-3 56 -3 74 1 17 3 36 3 43 -1 6 -4 31 -4 55 0 25 4 45 4 45 1 0 -5 111 -6
225 -1 17 0 98 1 180 1 185 0 149 0 347 -3 93 -2 168 0 168 3 0 3 23 3 50 -1
28 -4 50 -3 50 0 0 4 19 4 43 0 23 -3 56 -3 74 1 17 3 36 3 43 -1 6 -4 31 -4
55 0 25 4 45 4 45 1 0 -7 164 -5 244 3 70 7 127 34 164 78 57 67 57 67 59 304
3 249 -2 275 -66 340 -58 59 -112 75 -248 74 -35 -1 -71 -1 -80 -1 -83 2 -116
0 -124 -4 -5 -4 -9 -1 -9 5 0 6 -4 9 -9 5 -5 -3 -45 -5 -88 -5 -43 1 -98 0
-123 -1 -25 -1 -52 -1 -60 0 -8 0 -96 0 -195 0 -99 0 -186 0 -192 0 -7 1 -19
1 -25 2 -7 1 -38 1 -68 0 -30 -1 -95 -1 -143 -1 -48 0 -92 -2 -97 -5 -5 -3
-11 -1 -14 4 -4 5 -19 6 -34 2 -15 -4 -43 -4 -62 -1 -19 3 -55 3 -80 0 -25 -3
-63 -3 -85 0 -22 3 -75 3 -117 0 -42 -3 -87 -3 -100 0 -13 4 -42 3 -65 0 -24
-4 -43 -4 -43 -1 0 3 -43 4 -95 1 -52 -3 -105 -3 -117 0 -13 4 -42 3 -65 0
-24 -4 -43 -3 -43 2 0 5 -4 7 -9 3 -5 -3 -45 -5 -88 -5 -43 1 -98 0 -123 -1
-25 -1 -52 -1 -60 0 -8 0 -96 0 -195 0 -99 0 -187 0 -195 0 -46 2 -145 -1
-151 -5 -4 -2 -9 0 -11 5 -1 5 -30 0 -63 -10z"/>
</g>
</svg>
