<?xml version="1.0" standalone="no"?>
<!DOCTYPE svg PUBLIC "-//W3C//DTD SVG 20010904//EN"
 "http://www.w3.org/TR/2001/REC-SVG-20010904/DTD/svg10.dtd">
<svg version="1.0" xmlns="http://www.w3.org/2000/svg"
 width="512.000000pt" height="512.000000pt" viewBox="0 0 512.000000 512.000000"
 preserveAspectRatio="xMidYMid meet">
<metadata>
Created by potrace 1.11, written by Peter Selinger 2001-2013
</metadata>
<g transform="translate(0.000000,512.000000) scale(0.100000,-0.100000)"
fill="#000000" stroke="none">
<path d="M205 5102 c-99 -34 -174 -117 -195 -215 -8 -37 -10 -701 -8 -2357 l3
-2305 21 -46 c28 -60 93 -125 153 -153 l46 -21 1895 0 1895 0 46 21 c60 28
125 93 153 153 20 44 21 60 24 461 2 458 3 452 -60 483 -32 16 -40 16 -70 4
-65 -27 -63 -10 -68 -459 l-5 -410 -33 -29 -32 -29 -1855 2 -1855 3 -27 28
-28 27 0 2300 0 2300 28 27 27 28 1855 3 1855 2 32 -29 33 -29 5 -586 5 -586
27 -26 c37 -37 99 -37 136 0 l27 26 0 603 c0 595 0 603 -21 648 -28 60 -93
125 -153 153 l-46 21 -1880 2 c-1763 2 -1883 1 -1930 -15z"/>
<path d="M1956 4565 c-362 -75 -630 -326 -728 -682 -31 -111 -31 -333 1 -448
90 -334 349 -588 687 -672 95 -23 313 -23 408 0 280 70 502 250 626 508 66
138 84 220 84 389 0 118 -5 160 -22 223 -92 333 -340 581 -669 668 -102 27
-291 34 -387 14z m307 -206 c220 -39 430 -213 518 -430 75 -185 67 -401 -22
-584 -52 -108 -45 -107 -140 -13 -51 51 -108 96 -146 116 l-61 32 31 58 c31
56 32 59 32 192 0 126 -2 138 -27 190 -37 75 -100 137 -178 174 -57 27 -76 31
-150 31 -74 0 -93 -4 -150 -31 -78 -37 -141 -99 -178 -174 -25 -52 -27 -64
-27 -190 0 -133 1 -136 32 -192 l31 -58 -61 -32 c-39 -20 -93 -64 -145 -116
-95 -95 -87 -96 -141 13 -49 98 -72 197 -72 310 0 151 35 276 109 387 171 257
438 371 745 317z m-63 -461 c58 -40 74 -71 78 -151 4 -95 -22 -152 -88 -184
-24 -13 -56 -23 -70 -23 -49 0 -113 42 -138 90 -31 59 -28 173 4 217 35 48 82
73 134 73 32 0 57 -7 80 -22z m28 -573 c72 -17 164 -61 212 -101 36 -30 110
-121 110 -134 0 -20 -153 -97 -250 -125 -96 -28 -271 -26 -367 3 -106 33 -243
102 -243 122 0 13 74 104 110 134 46 38 140 84 208 100 75 19 143 19 220 1z"/>
<path d="M4596 3859 c-67 -16 -156 -71 -203 -123 -55 -64 -1310 -2234 -1324
-2291 -12 -51 -89 -739 -89 -799 0 -59 30 -95 85 -103 44 -5 48 -2 600 407
l131 96 631 1095 c347 602 640 1112 651 1135 101 202 6 457 -208 558 -54 25
-79 30 -150 33 -47 1 -102 -2 -124 -8z m165 -200 c51 -16 105 -62 130 -111 21
-41 27 -116 13 -161 -8 -25 -103 -195 -113 -201 -5 -4 -351 191 -366 206 -11
10 96 183 135 220 58 52 128 68 201 47z m-95 -702 c-14 -23 -239 -413 -501
-867 -261 -454 -480 -826 -485 -828 -13 -5 -370 200 -370 212 0 5 225 399 501
876 l501 867 189 -109 189 -110 -24 -41z m-1269 -1774 c106 -62 130 -80 120
-90 -15 -15 -311 -233 -313 -230 -1 2 43 388 45 395 3 7 26 -5 148 -75z"/>
<path d="M770 2407 c-38 -18 -63 -77 -50 -113 16 -42 39 -63 75 -70 111 -21
159 133 58 185 -28 14 -52 14 -83 -2z"/>
<path d="M1205 2411 c-64 -27 -81 -110 -32 -158 l27 -28 745 -3 744 -2 33 29
c27 24 33 36 33 71 0 35 -6 47 -33 71 l-32 29 -733 -1 c-402 0 -741 -4 -752
-8z"/>
<path d="M770 1847 c-38 -18 -63 -77 -50 -113 16 -42 39 -63 75 -70 111 -21
159 133 58 185 -28 14 -52 14 -83 -2z"/>
<path d="M1205 1851 c-64 -27 -81 -110 -32 -158 l27 -28 745 -3 744 -2 33 29
c27 24 33 36 33 71 0 35 -6 47 -33 71 l-32 29 -733 -1 c-402 0 -741 -4 -752
-8z"/>
<path d="M770 1287 c-38 -18 -63 -77 -50 -113 16 -42 39 -63 75 -70 111 -21
159 133 58 185 -28 14 -52 14 -83 -2z"/>
<path d="M1205 1291 c-64 -27 -81 -110 -32 -158 l27 -28 745 -3 744 -2 33 29
c27 24 33 36 33 71 0 35 -6 47 -33 71 l-32 29 -733 -1 c-402 0 -741 -4 -752
-8z"/>
<path d="M2084 730 c-32 -13 -64 -59 -64 -91 0 -18 11 -41 29 -61 l29 -33 306
-3 305 -3 33 30 c27 24 33 36 33 71 0 35 -6 47 -33 71 l-32 29 -293 -1 c-160
0 -302 -4 -313 -9z"/>
</g>
</svg>
